<?xml version="1.0" encoding="utf-8"?>
<!-- Svg Vector Icons : http://www.onlinewebfonts.com/icon -->
<!DOCTYPE svg PUBLIC "-//W3C//DTD SVG 1.1//EN" "http://www.w3.org/Graphics/SVG/1.1/DTD/svg11.dtd">
<svg version="1.1" xmlns="http://www.w3.org/2000/svg" xmlns:xlink="http://www.w3.org/1999/xlink" x="0px" y="0px" viewBox="0 0 1000 1000" enable-background="new 0 0 1000 1000" xml:space="preserve">
<metadata> Svg Vector Icons : http://www.onlinewebfonts.com/icon </metadata>
<g><path fill="#11CD6E" d="M990,527.1c0,21.4-7.8,40.3-23.3,56.6l-47.2,47.2c-15.9,15.9-35,23.9-57.2,23.9c-22.7,0-41.5-8-56.6-23.9L620.8,446.5v442.8c0,21.8-7.9,39.5-23.6,53.1c-15.7,13.6-34.7,20.5-56.9,20.5h-80.5c-22.2,0-41.2-6.8-56.9-20.5c-15.7-13.6-23.6-31.3-23.6-53.1V446.5L194.3,630.8c-15.1,15.9-33.9,23.9-56.6,23.9c-22.7,0-41.5-8-56.6-23.9l-47.2-47.2C18,567.7,10,548.8,10,527.1c0-22.2,8-41.3,23.9-57.2L443.4,60.3c14.7-15.5,33.5-23.3,56.6-23.3c22.7,0,41.7,7.8,57.2,23.3l409.5,409.5C982.2,486.2,990,505.2,990,527.1z"/></g>
</svg>
